<svg width="610px" height="732px" viewBox="0 0 610 732" version="1.1" xmlns="http://www.w3.org/2000/svg">
    <style>
        [id^='icon/'] {
            opacity: 0;
        }
        rect[id='containerValidation'] {
            opacity: 0;
        }
    </style>
    <defs>
        <polygon id="path-1" points="0.000295833333 0.626215385 54.0181806 0.626215385 54.0181806 60.0615385 0.000295833333 60.0615385"></polygon>
        <polygon id="path-3" points="0 0.220645438 54.0134908 0.220645438 54.0134908 54.1536782 0 54.1536782"></polygon>
        <polygon id="path-5" points="0 0.215630769 70.071675 0.215630769 70.071675 57.1075938 0 57.1075938"></polygon>
        <polygon id="path-7" points="0 0.0571076923 58.6351528 0.0571076923 58.6351528 58.0922092 0 58.0922092"></polygon>
        <polygon id="path-9" points="0 0.541538462 65.4007625 0.541538462 65.4007625 58.0923077 0 58.0923077"></polygon>
        <polygon id="path-11" points="0.000295833333 0.0703015385 67.6425875 0.0703015385 67.6425875 54.1538462 0.000295833333 54.1538462"></polygon>
        <polygon id="path-13" points="0.000394444444 0.0167384615 49.7581806 0.0167384615 49.7581806 55.1384615 0.000394444444 55.1384615"></polygon>
    </defs>
    <g id="dataLifecycleDiagram" stroke="none" strokeWidth="1" fill="none" fillRule="evenodd">
        <g id="background" transform="translate(0.000000, 129.000000)">
            <rect id="containerBackground" fill="#F1F1F2" fillRule="nonzero" x="0" y="0" width="610" height="416" rx="5"></rect>
            <text id="textBackend" fontFamily="DINAlternate-Bold, DIN Alternate" fontSize="21" fontWeight="bold" linespacing="21" letterSpacing="0.21" fill="#898B8E">
                <tspan x="514" y="396">Backend</tspan>
            </text>
        </g>
        <path d="M115.3236,511.259356 L115.3236,545.279768 L115.316,545.279 L115.316,569.294 L475.057239,569.294177 C511.893226,569.294177 541.9295,598.989422 542.526542,635.719537 L542.535599,636.834701 L542.535599,642.834301 L550.753964,642.834301 C552.033887,643.416678 552.327761,644.060931 551.635587,644.767061 L551.539712,644.859516 L530.62242,664 L517.921493,664 L497.004201,644.859516 C495.828144,643.78297 496.11963,642.895295 497.63033,642.837313 L497.790948,642.834301 L507.54682,642.834301 L507.54682,636.834701 C507.54682,619.082259 493.262523,604.607279 475.593683,604.319554 L475.057239,604.315189 L393.906263,604.315189 C390.45237,600.329798 384.284348,596.044227 385.011115,596.845707 C389.45569,601.745647 393.266468,607.128877 396.477438,612.971383 C399.194498,620.138856 400.733605,627.880923 400.836519,635.967027 L400.842038,636.834701 L400.842038,642.834301 L409.829156,642.834301 C411.423645,642.834301 411.807482,643.686091 410.731437,644.748849 L410.614904,644.859516 L389.697612,664 L376.996685,664 L356.079393,644.859516 C354.902371,643.78297 355.193824,642.895295 356.704523,642.837313 L356.865141,642.834301 L365.853259,642.834301 L365.853259,636.834701 C365.853259,619.082259 351.567982,604.607279 333.900092,604.319554 L333.363678,604.315189 L252.951465,604.315189 C249.497572,600.329798 243.32955,596.044227 244.056317,596.845707 C248.500892,601.745647 252.31167,607.128877 255.52264,612.971383 C258.2397,620.138856 259.778807,627.880923 259.881721,635.967027 L259.887241,636.834701 L259.887241,642.834301 L268.874359,642.834301 C270.468847,642.834301 270.852684,643.686091 269.776639,644.748849 L269.660107,644.859516 L248.742814,664 L236.041887,664 L215.124595,644.859516 C213.947573,643.78297 214.239026,642.895295 215.749725,642.837313 L215.910343,642.834301 L224.898461,642.834301 L224.898461,636.834701 C224.898461,619.082259 210.613184,604.607279 192.945295,604.319554 L192.40888,604.315189 L115.316,604.315 L115.316531,643.564001 L124.461599,642.271282 C126.056087,642.271282 126.439924,643.123072 125.36388,644.18583 L125.247347,644.296497 L104.330055,663.436981 L91.6291275,663.436981 L70.7118354,644.296497 C69.5357792,643.219951 69.8272646,642.332276 71.3379648,642.274294 L71.4985831,642.271282 L80.3277517,642.271282 L80.3277517,545.271706 L80.334,545.271 L80.3348204,511.259356 L115.3236,511.259356 Z M449.224523,376.178307 L470.141815,395.318791 C471.318838,396.395337 471.02645,397.283012 469.516592,397.340994 L469.356067,397.344006 L460.098036,397.344006 C456.493612,444.591395 417.29063,482.029938 369.353877,482.773984 L367.898603,482.785271 L185.950951,482.785271 L185.950951,447.764259 L367.898603,447.764259 C396.893335,447.764259 420.924472,426.160674 424.812673,398.193431 L424.924316,397.344006 L416.392052,397.344006 C414.797563,397.344006 414.413726,396.492216 415.489771,395.429458 L415.606304,395.318791 L436.523596,376.178307 L449.224523,376.178307 Z M78.3354616,79 L78.3354616,129.030018 L78.3283929,129.030018 L78.3283929,365.412735 L82.3271106,365.412735 L82.3271106,129.030018 L82.3341792,129.030018 L82.3341792,79 L117.322959,79 L117.322959,129.030018 L117.31589,129.030018 L117.31589,365.412735 L120.939,365.412 L120.939514,313.640784 C120.939514,263.115519 161.596705,221.916601 211.885054,221.097675 L213.411859,221.085251 L368.600093,221.085251 C419.587742,221.085251 461.070439,262.605163 461.070439,313.640784 L461.070439,313.640784 L461.070439,315.673004 L426.081659,315.673004 L426.081659,313.640784 C426.081659,281.915749 400.295928,256.106264 368.600093,256.106264 L368.600093,256.106264 L213.411859,256.106264 C181.715024,256.106264 155.928293,281.915749 155.928293,313.640784 L155.928293,313.640784 L155.928293,366.201321 L164.448561,366.201321 C166.098032,366.201321 166.451919,367.112868 165.234309,368.227537 L165.234309,368.227537 L144.317017,387.368021 L131.61609,387.368021 L118.541,375.403 L106.329413,386.578435 L93.6284864,386.578435 L80.485,374.551 L67.3419161,386.578435 L54.6409891,386.578435 L33.723697,367.43795 C32.5476408,366.361404 32.8391262,365.47373 34.3498264,365.415747 L34.5104447,365.412735 L43.3396133,365.412735 L43.3396133,129.030018 L43.346682,129.030018 L43.346682,79 L78.3354616,79 Z" id="flowPaths" fill="#CEE2E9"></path>
        <g id="stateAnalysisPortals" transform="translate(421.000000, 644.000000)">
            <rect id="containerAnalysisPortals" stroke="#BCBEC0" strokeWidth="2" fillRule="nonzero" fill="transparent" x="37" y="19" width="130" height="68" rx="4"></rect>
            <text id="textAnalysisPortals" fontFamily="DINAlternate-Bold, DIN Alternate" fontSize="21" fontWeight="bold" linespacing="21" letterSpacing="0.21" fill="#0C87C6">
                <tspan x="63.5" y="52">Analysis</tspan>
                <tspan x="69.5779004" y="73">Portals</tspan>
            </text>
            <g id="icon/Portals">
                <g id="Group-6" transform="translate(0.000000, 2.953846)">
                    <path d="M44.1785667,43.8336985 C46.9041778,42.6698831 48.814275,39.9740062 48.814275,36.8261908 C48.814275,32.6218831 45.3954278,29.2111754 41.1837472,29.2111754 C36.9710806,29.2111754 33.55815,32.6218831 33.55815,36.8261908 C33.55815,39.9740062 35.4692333,42.6698831 38.1909,43.8336985 C34.97815,44.2068677 32.9171778,45.2082215 31.60565,46.6526523 L31.6076222,46.65856 C29.9351778,44.8754215 27.3535389,43.6288985 23.3390806,43.16416 C26.8003306,41.6892062 29.2291222,38.2607754 29.2291222,34.2661908 C29.2291222,32.6730831 28.8356639,31.1735138 28.1513028,29.8482215 C27.9964833,29.5469292 27.8258861,29.2544985 27.6424694,28.9719138 C30.0535111,28.2738215 33.84215,26.9436062 35.4386639,26.0170831 L35.5303722,26.4325908 L39.3308444,27.6653292 L39.1996917,23.1735138 L39.1977194,23.1725292 C41.5249417,20.8508062 42.8897194,18.0416985 42.8897194,15.0110523 C42.8897194,7.05240615 33.5088444,1.96883692 21.9388028,1.96883692 C10.3638306,1.96883692 0.985913889,7.05240615 0.985913889,15.0110523 C0.985913889,18.1677292 2.47296944,21.08416 4.98065,23.4580677 C4.98065,23.4580677 5.15223333,28.8114215 7.95870556,29.2111754 C8.62531667,27.6426831 8.81958056,26.4325908 8.81958056,26.4325908 L8.85803889,26.2592985 C9.93585833,26.8530215 11.1024278,27.3738831 12.338025,27.8140062 C12.107275,28.0719754 11.8873722,28.3407754 11.6842333,28.6223754 C10.5373861,30.2125292 9.853025,32.1581292 9.853025,34.2661908 C9.853025,38.2627446 12.2739278,41.6892062 15.73715,43.16416 C5.53878889,44.3486523 4.49153889,50.5221908 4.49153889,57.9776985 C4.49153889,57.9776985 7.84826111,59.4359138 19.8709278,59.4359138 C31.8926083,59.4359138 34.5846917,57.9776985 34.5846917,57.9776985 C34.5846917,57.20576 34.5689139,56.4515446 34.5383444,55.7120985 L34.5866639,55.8647138 C43.6224,57.18016 53.0328583,55.4974523 53.0328583,55.4974523 C53.0328583,49.6261908 52.2114278,44.7621908 44.1785667,43.8336985" id="Fill-1" fill="#FFFFFF"></path>
                    <g id="Group-5" transform="translate(0.000000, 0.358695)">
                        <mask id="mask-2" fill="white">
                            <use href="#path-1"></use>
                        </mask>
                        <g id="Clip-4"></g>
                        <path d="M35.4884625,54.6288246 C35.3020875,51.5607631 34.7074625,48.6522092 32.9679625,46.3669169 C34.2025736,45.3576862 35.9558792,44.7255631 38.3038097,44.4528246 C38.7485458,44.4016246 39.1025597,44.0589785 39.1656708,43.6159015 C39.2307542,43.1747938 38.9901431,42.7455015 38.5789347,42.57024 C36.1274625,41.5216246 34.5447542,39.12704 34.5447542,36.4675938 C34.5447542,32.8117169 37.5228097,29.8371938 41.1832542,29.8371938 C44.8476431,29.8371938 47.8286569,32.8117169 47.8286569,36.4675938 C47.8286569,39.12704 46.2429903,41.5216246 43.7905319,42.5692554 C43.3803097,42.7455015 43.1387125,43.1747938 43.2028097,43.6159015 C43.2669069,44.0589785 43.6209208,44.4016246 44.0646708,44.4528246 C51.0808514,45.2641477 51.9683514,49.17504 52.0403375,54.2979938 C49.6687403,54.6475323 42.5115458,55.5179323 35.4884625,54.6288246 M19.8704347,58.0927015 C10.9579625,58.0927015 6.88039306,57.2754708 5.48011528,56.9003323 C5.53928194,50.0927015 6.56582361,44.8624246 15.8510458,43.7832862 C16.2957819,43.7320862 16.6497958,43.3884554 16.7129069,42.9473477 C16.7770042,42.5052554 16.5354069,42.0749785 16.1241986,41.8997169 C12.9134208,40.5330708 10.8396292,37.3951015 10.8396292,33.9075938 C10.8396292,29.11744 14.7406847,25.2203323 19.5351569,25.2203323 C24.3365319,25.2203323 28.2425181,29.11744 28.2425181,33.9075938 C28.2425181,37.3931323 26.1657681,40.5311015 22.9520319,41.8997169 C22.5408236,42.0749785 22.2992264,42.5052554 22.3633236,42.9473477 C22.4274208,43.38944 22.7814347,43.7330708 23.2251847,43.7832862 C26.9586014,44.2155323 29.3420319,45.3281477 30.8783931,46.9360246 C30.9030458,46.9635938 30.9148792,46.9980554 30.9434764,47.0236554 C30.9543236,47.0344862 30.9701014,47.03744 30.9829208,47.0472862 C33.1819486,49.4418708 33.5635736,52.9077169 33.5961153,56.9308554 C32.3407958,57.3010708 28.6310458,58.0927015 19.8704347,58.0927015 M9.3338375,25.0391631 C9.06167083,24.8885169 8.73526806,24.8747323 8.45225417,25.0037169 C8.16924028,25.1317169 7.96215694,25.3847631 7.89510139,25.68704 L7.84579583,25.9164554 C7.84480972,25.9253169 7.73337917,26.5850092 7.4079625,27.5351631 C6.41889306,26.6440862 6.00768472,24.2908554 5.96626806,23.0659938 C5.95739306,22.8080246 5.84694861,22.5628554 5.6595875,22.38464 C3.24755972,20.1013169 1.97251806,17.4271015 1.97251806,14.6514708 C1.97251806,7.66562462 10.3692542,2.59485538 21.9392958,2.59485538 C33.5073653,2.59485538 41.9041014,7.66562462 41.9041014,14.6514708 C41.9041014,17.3148554 40.7266847,19.8955323 38.5010319,22.1168246 C38.2969069,22.32064 38.1943514,22.60224 38.2160458,22.8867938 L38.3038097,25.9381169 L36.3601847,25.3079631 C36.2665042,25.0627938 36.0781569,24.8639015 35.8345875,24.7565785 C35.5486153,24.6315323 35.2162958,24.6492554 34.9431431,24.8067938 C33.5625875,25.6082708 30.3735042,26.7563323 28.0275458,27.4721477 C26.0750458,24.9131323 23.0003514,23.2511015 19.5351569,23.2511015 C16.6409208,23.2511015 14.0149069,24.4129477 12.0900181,26.2896246 C11.1344764,25.9223631 10.2026014,25.5176862 9.3338375,25.0391631 M31.6120597,44.9431631 C30.2758792,43.7832862 28.5087681,42.8626708 26.1312542,42.2925785 C28.6724625,40.3036554 30.2147403,37.2346092 30.2147403,33.9075938 C30.2147403,32.2160246 29.8074764,30.6209477 29.1014208,29.1991631 C31.1012542,28.5699938 33.5073653,27.7015631 35.0831708,26.9512862 C35.1295181,26.9749169 35.1768514,26.9946092 35.2261569,27.0103631 L38.8708236,28.1919015 C35.2439069,29.2050708 32.5725319,32.5271631 32.5725319,36.4675938 C32.5725319,39.0079015 33.6868375,41.3611323 35.5426986,42.9680246 C33.9442125,43.3992862 32.6504347,44.0609477 31.6120597,44.9431631 M46.8297264,42.9680246 C48.6865736,41.3611323 49.8008792,39.0079015 49.8008792,36.4675938 C49.8008792,31.7256862 45.9353236,27.8679631 41.1832542,27.8679631 C40.8075458,27.8679631 40.4397264,27.9004554 40.0758514,27.9477169 C40.2346153,27.7635938 40.3233653,27.5263015 40.3164625,27.2781785 L40.1971431,23.1999015 C42.6062125,20.66944 43.8763236,17.7224862 43.8763236,14.6514708 C43.8763236,6.52445538 34.6502681,0.625624615 21.9392958,0.625624615 C9.22635139,0.625624615 0.000295833333,6.52445538 0.000295833333,14.6514708 C0.000295833333,17.8672246 1.38775417,20.9313477 4.0177125,23.5376246 C4.1242125,24.9928862 4.70601806,29.3842708 7.81818472,29.8273477 C8.26390694,29.8903631 8.69089306,29.6491323 8.86642083,29.2375631 C9.17310139,28.51584 9.3870875,27.8620554 9.53007361,27.3549785 C9.92451806,27.5459938 10.3436153,27.7015631 10.7538375,27.8709169 C9.56655972,29.5890708 8.86740694,31.6675938 8.86740694,33.9075938 C8.86740694,37.2365785 10.4077125,40.30464 12.9479347,42.2935631 C4.28593472,44.3740554 3.50493472,50.9699938 3.50493472,57.6191015 C3.50493472,58.0119631 3.73864306,58.36544 4.09857361,58.5219938 C4.24254583,58.5850092 7.78169861,60.0619323 19.8704347,60.0619323 C31.7984347,60.0619323 34.7577542,58.6460554 35.0555597,58.4845785 C35.3730875,58.3122708 35.5712958,57.9804554 35.5712958,57.6191015 C35.5712958,57.2843323 35.5673514,56.9505477 35.5624208,56.6177477 C37.8028653,56.8865477 40.0324625,56.9968246 42.1151292,56.9968246 C48.1353375,56.9968246 52.9278375,56.1579323 53.2069069,56.1077169 C53.6762958,56.0240246 54.0184764,55.6154092 54.0184764,55.1388554 C54.0184764,49.9164554 53.4149764,44.7344246 46.8297264,42.9680246 M10.9145736,13.88544 C10.9145736,14.7903015 11.6462681,15.5228554 12.5515181,15.5228554 C13.4567681,15.5228554 14.1884625,14.7903015 14.1884625,13.88544 C14.1884625,12.9835323 13.4567681,12.2509785 12.5515181,12.2509785 C11.6462681,12.2509785 10.9145736,12.9835323 10.9145736,13.88544 M31.0588514,9.34931692 C31.0588514,10.2541785 31.7905458,10.9867323 32.6977681,10.9867323 C33.6030181,10.9867323 34.3327403,10.2541785 34.3327403,9.34931692 C34.3327403,8.44544 33.6030181,7.71584 32.6977681,7.71584 C31.7905458,7.71584 31.0588514,8.44544 31.0588514,9.34931692 M19.4434486,19.18464 C19.4434486,20.0895015 20.1771153,20.8220554 21.0823653,20.8220554 C21.9856431,20.8220554 22.7193097,20.0895015 22.7193097,19.18464 C22.7193097,18.2827323 21.9856431,17.5521477 21.0823653,17.5521477 C20.1771153,17.5521477 19.4434486,18.2827323 19.4434486,19.18464 M9.32989306,17.7471015 L10.8090597,16.49664 C11.2242125,16.1451323 11.2754903,15.52384 10.9234486,15.1083323 C10.5723931,14.6947938 9.95212917,14.6416246 9.53401806,14.9941169 L8.05485139,16.2445785 C7.63969861,16.5960862 7.58743472,17.2173785 7.93947639,17.6328862 C8.13472639,17.8623015 8.41280972,17.9804554 8.69286528,17.9804554 C8.91769861,17.9804554 9.14351806,17.90464 9.32989306,17.7471015 M24.2606014,17.7933785 L30.5648097,12.4705477 C30.9809486,12.11904 31.0322264,11.4977477 30.6811708,11.08224 C30.3291292,10.6677169 29.7078792,10.6145477 29.2917403,10.9660554 L22.9875319,16.2898708 C22.5713931,16.6403938 22.5201153,17.2616862 22.8711708,17.6771938 C23.0664208,17.9075938 23.3454903,18.0257477 23.6255458,18.0257477 C23.8493931,18.0257477 24.0761986,17.9499323 24.2606014,17.7933785 M18.4484625,18.5367631 C18.2699764,18.5367631 18.0895181,18.4885169 17.9277958,18.3880862 L14.6637681,16.3587938 C14.2012819,16.0712862 14.0602681,15.4647631 14.3482125,15.0029785 C14.6361569,14.5402092 15.2455736,14.4003938 15.7051014,14.6869169 L18.9701153,16.7162092 C19.4326014,17.0037169 19.5736153,17.61024 19.2856708,18.0720246 C19.0992958,18.3723323 18.7778236,18.5367631 18.4484625,18.5367631" id="Fill-3" fill="#0C87C6" mask="url(#mask-2)"></path>
                    </g>
                </g>
            </g>
        </g>
        <g id="stateMatrixService" transform="translate(317.000000, 644.000000)">
            <rect id="containerMatrixService" stroke="#BCBEC0" strokeWidth="2" fillRule="nonzero" fill="transparent" x="0" y="19" width="130" height="68" rx="4"></rect>
            <text id="textMatrixService" fontFamily="DINAlternate-Bold, DIN Alternate" fontSize="21" fontWeight="bold" linespacing="21" letterSpacing="0.21" fill="#0C87C6">
                <tspan x="36.2859082" y="52">Matrix</tspan>
                <tspan x="31.5" y="73">Service</tspan>
            </text>
            <g id="icon/matrix-service" transform="translate(113.000000, 0.000000)">
                <g id="Group-5" transform="translate(0.000000, 7.876923)">
                    <polyline id="Fill-1" fill="#FFFFFF" points="2.14690913 1.55513894 52.8761722 1.55513894 52.8761722 53.2179082 1.13744477 53.2179082 1.13744477 1.55513894"></polyline>
                    <g id="Group-4" transform="translate(0.000000, 0.199404)">
                        <mask id="mask-4" fill="white">
                            <use href="#path-3"></use>
                        </mask>
                        <g id="Clip-3"></g>
                        <path d="M51.7397785,2.490909 L11.1846213,2.490909 L11.1846213,9.11740871 L48.9262277,9.11740871 C49.5543575,9.11740871 50.0635043,9.62578318 50.0635043,10.2525405 C50.0635043,10.8801374 49.5543575,11.3880921 48.9262277,11.3880921 L11.1846213,11.3880921 L11.1846213,49.0745512 C11.1846213,49.7013085 10.6763154,50.209683 10.0477651,50.209683 C9.41963528,50.209683 8.91048853,49.7013085 8.91048853,49.0745512 L8.91048853,11.3880921 L2.27392253,11.3880921 L2.27392253,51.8834147 L51.7397785,51.8834147 L51.7397785,2.490909 Z M2.27392253,9.11740871 L8.91048853,9.11740871 L8.91048853,2.490909 L2.27392253,2.490909 L2.27392253,9.11740871 Z M54.0134908,1.35577722 L54.0134908,53.0185465 C54.0134908,53.6457236 53.5047645,54.1536782 52.8762142,54.1536782 L1.13748681,54.1536782 C0.508516096,54.1536782 -0.000210217485,53.6457236 -0.000210217485,53.0185465 L-0.000210217485,1.35577722 C-0.000210217485,0.728180322 0.508516096,0.220645438 1.13748681,0.220645438 L52.8762142,0.220645438 C53.5047645,0.220645438 54.0134908,0.728180322 54.0134908,1.35577722 L54.0134908,1.35577722 Z M45.403403,41.9896329 C44.0529659,41.9896329 42.9581533,43.0802662 42.9581533,44.4294946 C42.9581533,45.7778834 44.0529659,46.8689364 45.403403,46.8689364 C46.754681,46.8689364 47.8486528,45.7778834 47.8486528,44.4294946 C47.8486528,43.0802662 46.754681,41.9896329 45.403403,41.9896329 L45.403403,41.9896329 Z M35.8683584,41.9896329 C34.5175008,41.9896329 33.4231086,43.0802662 33.4231086,44.4294946 C33.4231086,45.7778834 34.5175008,46.8689364 35.8683584,46.8689364 C37.2196364,46.8689364 38.3131877,45.7778834 38.3131877,44.4294946 C38.3131877,43.0802662 37.2196364,41.9896329 35.8683584,41.9896329 L35.8683584,41.9896329 Z M35.8683584,32.7922948 C34.5175008,32.7922948 33.4231086,33.8829281 33.4231086,35.2317367 C33.4231086,36.5809651 34.5175008,37.6720181 35.8683584,37.6720181 C37.2196364,37.6720181 38.3131877,36.5809651 38.3131877,35.2317367 C38.3131877,33.8829281 37.2196364,32.7922948 35.8683584,32.7922948 L35.8683584,32.7922948 Z M26.3333137,32.7922948 C24.9820357,32.7922948 23.8880639,33.8829281 23.8880639,35.2317367 C23.8880639,36.5809651 24.9820357,37.6720181 26.3333137,37.6720181 C27.6841712,37.6720181 28.7794043,36.5809651 28.7794043,35.2317367 C28.7794043,33.8829281 27.6841712,32.7922948 26.3333137,32.7922948 L26.3333137,32.7922948 Z M35.8683584,23.5945369 C34.5175008,23.5945369 33.4231086,24.6860098 33.4231086,26.0348184 C33.4231086,27.383627 34.5175008,28.47468 35.8683584,28.47468 C37.2196364,28.47468 38.3131877,27.383627 38.3131877,26.0348184 C38.3131877,24.6860098 37.2196364,23.5945369 35.8683584,23.5945369 L35.8683584,23.5945369 Z M26.3333137,23.5945369 C24.9820357,23.5945369 23.8880639,24.6860098 23.8880639,26.0348184 C23.8880639,27.383627 24.9820357,28.47468 26.3333137,28.47468 C27.6841712,28.47468 28.7794043,27.383627 28.7794043,26.0348184 C28.7794043,24.6860098 27.6841712,23.5945369 26.3333137,23.5945369 L26.3333137,23.5945369 Z M16.7965873,23.5945369 C15.4453093,23.5945369 14.3504966,24.6860098 14.3504966,26.0348184 C14.3504966,27.383627 15.4453093,28.47468 16.7965873,28.47468 C18.1470244,28.47468 19.241837,27.383627 19.241837,26.0348184 C19.241837,24.6860098 18.1470244,23.5945369 16.7965873,23.5945369 L16.7965873,23.5945369 Z M19.241837,16.8374803 C19.241837,18.1862888 18.1470244,19.2773419 16.7965873,19.2773419 C15.4453093,19.2773419 14.3504966,18.1862888 14.3504966,16.8374803 C14.3504966,15.4882519 15.4453093,14.3976186 16.7965873,14.3976186 C18.1470244,14.3976186 19.241837,15.4882519 19.241837,16.8374803 L19.241837,16.8374803 Z" id="Fill-2" fill="#0C87C6" mask="url(#mask-4)"></path>
                    </g>
                </g>
            </g>
        </g>
        <use id="use" href="#stateAnalysisPortals"/>
        <g id="stateCLIDataAccess" transform="translate(176.000000, 644.000000)">
            <rect id="containerCLIDataAccess" stroke="#BCBEC0" strokeWidth="2" fillRule="nonzero" fill="transparent" x="0" y="19" width="130" height="68" rx="4"></rect>
            <text id="textCLIDataAccess" fontFamily="DINAlternate-Bold, DIN Alternate" fontSize="21" fontWeight="bold" linespacing="21" letterSpacing="0.21" fill="#0C87C6">
                <tspan x="27" y="52">CLI Data</tspan>
                <tspan x="33.0906152" y="73">Access</tspan>
            </text>
            <g id="icon/CLI" transform="translate(113.000000, 0.000000)">
                <g id="Group-6" transform="translate(0.000000, 4.923077)">
                    <path d="M58.5253,20.7279262 C58.3862583,10.5282954 50.0753139,1.96903385 39.8296194,1.96903385 C33.3045222,1.96903385 27.1758417,5.48804923 23.7934806,10.5666954 C22.3034667,9.58208 20.5195917,9.00509538 18.5996333,9.00509538 C13.4107167,9.00509538 9.20199444,13.2005415 9.20199444,18.3815877 C9.20199444,18.5588185 9.21974444,18.7370338 9.23157778,18.9122954 C9.21974444,19.1239877 9.20199444,19.3425723 9.20199444,19.5542646 C4.52388333,21.79328 0.985716667,27.1220185 0.985716667,32.6279877 C0.985716667,37.3974646 3.42239722,41.6244185 7.112425,44.1282954 L7.52659167,44.1538954 L7.52659167,45.0046031 L7.52659167,52.5457723 L3.29518889,52.5457723 L4.92128611,56.8918646 L50.3228278,56.8918646 L51.9499111,52.5457723 L47.3437861,52.5457723 L47.3437861,47.5015877 L47.3437861,46.5169723 L56.1408833,46.5169723 C63.2615917,46.5169723 69.0855639,40.6998646 69.0855639,33.5899569 C69.0855639,27.2933415 64.5169111,21.8494031 58.5253,20.7279262" id="Fill-1" fill="#FFFFFF"></path>
                    <g id="Group-5" transform="translate(0.000000, 0.768788)">
                        <mask id="mask-6" fill="white">
                            <use href="#path-5"></use>
                        </mask>
                        <g id="Clip-4"></g>
                        <path d="M36.46205,46.2807631 L18.7800917,46.2807631 C18.2357583,46.2807631 17.7939806,45.84064 17.7939806,45.2961477 C17.7939806,44.7516554 18.2357583,44.3115323 18.7800917,44.3115323 L36.46205,44.3115323 C37.0073694,44.3115323 37.4481611,44.7516554 37.4481611,45.2961477 C37.4481611,45.84064 37.0073694,46.2807631 36.46205,46.2807631 L36.46205,46.2807631 Z M36.46205,40.6074092 L18.7800917,40.6074092 C18.2357583,40.6074092 17.7939806,40.1672862 17.7939806,39.6227938 C17.7939806,39.0792862 18.2357583,38.6381785 18.7800917,38.6381785 L36.46205,38.6381785 C37.0073694,38.6381785 37.4481611,39.0792862 37.4481611,39.6227938 C37.4481611,40.1672862 37.0073694,40.6074092 36.46205,40.6074092 L36.46205,40.6074092 Z M36.46205,34.9330708 L18.7800917,34.9330708 C18.2357583,34.9330708 17.7939806,34.4919631 17.7939806,33.9484554 C17.7939806,33.4039631 18.2357583,32.96384 18.7800917,32.96384 L36.46205,32.96384 C37.0073694,32.96384 37.4481611,33.4039631 37.4481611,33.9484554 C37.4481611,34.4919631 37.0073694,34.9330708 36.46205,34.9330708 L36.46205,34.9330708 Z M44.8292028,49.2946708 C44.5767583,49.2946708 44.3253,49.1981785 44.1320222,49.0061785 L40.8719389,45.7480862 L44.1320222,42.4919631 C44.5175917,42.1079631 45.1418,42.1079631 45.5263833,42.4919631 C45.9119528,42.8769477 45.9119528,43.5002092 45.5263833,43.8842092 L43.6606611,45.7480862 L45.5263833,47.6139323 C45.9119528,47.9979323 45.9119528,48.6221785 45.5263833,49.0061785 C45.3340917,49.1981785 45.0816472,49.2946708 44.8292028,49.2946708 L44.8292028,49.2946708 Z M47.3437861,52.7615015 L50.528925,52.7615015 L49.6384667,55.1383631 L5.60564722,55.1383631 L4.716175,52.7615015 L7.52659167,52.7615015 L47.3437861,52.7615015 Z M59.4857722,19.1615015 C58.9355222,8.64482462 50.2754944,0.215532308 39.8296194,0.215532308 C33.4573694,0.215532308 27.2902306,3.36236308 23.5114528,8.48334769 C22.0036889,7.67497846 20.3233556,7.25159385 18.5996333,7.25159385 C12.8742722,7.25159385 8.21588333,11.8999631 8.21588333,17.6127015 C8.21588333,17.77024 8.22673056,17.9287631 8.23856389,18.0853169 L8.24349444,18.1493169 L8.24250833,18.16704 C3.36224444,20.7703631 -0.000394444444,26.3117785 -0.000394444444,31.8600862 C-0.000394444444,36.7772554 2.44516111,41.3744246 6.54048056,44.1618708 L6.54048056,50.7922708 L3.29518889,50.7922708 C2.97174444,50.7922708 2.66900833,50.9498092 2.48559167,51.2156554 C2.30020278,51.4805169 2.2578,51.8192246 2.37218889,52.1215015 L3.9973,56.4675938 C4.14127222,56.8525785 4.51007778,57.1075938 4.92128611,57.1075938 L50.3228278,57.1075938 C50.7340361,57.1075938 51.1028417,56.8525785 51.2458278,56.4685785 L52.8738972,52.1224862 C52.9873,51.8192246 52.9448972,51.4805169 52.7595083,51.2156554 C52.5760917,50.9507938 52.2733556,50.7922708 51.9499111,50.7922708 L47.3437861,50.7922708 L8.51270278,50.7922708 L8.51270278,27.5957169 L46.357675,27.5957169 L46.357675,39.6552862 C46.357675,40.1997785 46.7984667,40.6399015 47.3437861,40.6399015 C47.8891056,40.6399015 48.3298972,40.1997785 48.3298972,39.6552862 L48.3298972,26.6111015 C48.3298972,26.0675938 47.8891056,25.6264862 47.3437861,25.6264862 L7.52659167,25.6264862 C6.98127222,25.6264862 6.54048056,26.0675938 6.54048056,26.6111015 L6.54048056,41.6570092 C3.66695278,39.21024 1.97182778,35.65184 1.97182778,31.8600862 C1.97182778,26.8424862 5.12048056,21.8307938 9.62898056,19.6735015 L10.1881056,19.4047015 L10.1881056,18.7853785 C10.1881056,18.6445785 10.1979667,18.49984 10.2068417,18.3570708 L10.2196611,18.1384862 L10.2058556,17.9415631 C10.1969806,17.8322708 10.1881056,17.7219938 10.1881056,17.6127015 C10.1881056,12.9859938 13.9619528,9.22082462 18.5996333,9.22082462 C20.2563,9.22082462 21.8646472,9.70427077 23.2501333,10.6189785 L24.0705778,11.1605169 L24.6149111,10.3423015 C27.915425,5.38673231 33.8883,2.18476308 39.8296194,2.18476308 C49.4619528,2.18476308 57.4060639,10.1640862 57.5391889,19.9728246 L57.5500361,20.77824 L58.3428694,20.9269169 C63.9055222,21.9676554 68.0994528,27.0807631 68.0994528,32.8210708 C68.0994528,39.4061785 62.7350083,44.7634708 56.1408833,44.7634708 L47.3437861,44.7634708 L47.3437861,46.7327015 L56.1408833,46.7327015 C63.8226889,46.7327015 70.071675,40.4922092 70.071675,32.8210708 C70.071675,26.4191015 65.5730361,20.6856862 59.4857722,19.1615015 L59.4857722,19.1615015 Z" id="Fill-3" fill="#0C87C6" mask="url(#mask-6)"></path>
                    </g>
                </g>
            </g>
        </g>
        <g id="stateHCADataStorage" transform="translate(35.000000, 644.000000)">
            <rect id="containerHCADataStorage" stroke="#BCBEC0" strokeWidth="2" fillRule="nonzero" fill="transparent" x="0" y="19" width="130" height="68" rx="4"></rect>
            <text id="textHCADataStorage" fontFamily="DINAlternate-Bold, DIN Alternate" fontSize="21" fontWeight="bold" linespacing="21" letterSpacing="0.21" fill="#0C87C6">
                <tspan x="22.5" y="52">HCA Data</tspan>
                <tspan x="26.6911816" y="73">Browser</tspan>
            </text>
            <g id="icon/browser" transform="translate(119.000000, 0.000000)">
                <g id="Group-6" transform="translate(0.000000, 4.430769)">
                    <path d="M43.2367319,39.0528985 L38.6335653,43.6471138 L53.0495236,58.0352985 L57.6487458,53.4430523 L43.2367319,39.0528985 Z M42.5681486,22.7279754 C42.5681486,34.1918523 33.2563014,43.4856369 21.7769819,43.4856369 C10.2986486,43.4856369 0.985815278,34.1918523 0.985815278,22.7279754 C0.985815278,11.2621292 10.2986486,1.96932923 21.7769819,1.96932923 C33.2563014,1.96932923 42.5681486,11.2621292 42.5681486,22.7279754 L42.5681486,22.7279754 Z" id="Fill-1" fill="#FFFFFF"></path>
                    <g id="Group-5" transform="translate(0.000000, 0.927902)">
                        <mask id="mask-8" fill="white">
                            <use href="#path-7"></use>
                        </mask>
                        <g id="Clip-4"></g>
                        <path d="M53.0497208,55.7153477 L40.0281236,42.7194092 L43.2369292,39.51744 L56.2545819,52.5153477 L53.0497208,55.7153477 Z M12.6152208,39.3136246 L12.6152208,16.9077169 L22.0818875,16.9077169 L22.0818875,23.7911631 C22.0818875,24.8791631 22.9644569,25.7603938 24.0541097,25.7603938 L30.9509708,25.7603938 L30.9509708,39.3077169 C28.2056375,40.7472246 25.0885403,41.5733169 21.7771792,41.5733169 C18.4717347,41.5733169 15.3575958,40.7491938 12.6152208,39.3136246 L12.6152208,39.3136246 Z M30.9509708,23.7911631 L24.0541097,23.7911631 L24.0541097,16.9077169 L30.9509708,23.7911631 Z M1.97212361,21.8002708 C1.97212361,10.89664 10.8569847,2.02624 21.7771792,2.02624 C32.6973736,2.02624 41.5822347,10.89664 41.5822347,21.8002708 C41.5822347,28.5783631 38.1456375,34.5667938 32.9231931,38.1320862 L32.9231931,23.7911631 C32.9231931,23.6621785 32.9093875,23.5351631 32.8857208,23.4111015 C32.8857208,23.4091323 32.8857208,23.4071631 32.8847347,23.4061785 C32.8521931,23.2387938 32.7890819,23.0812554 32.7151236,22.92864 C32.6954014,22.89024 32.6756792,22.8528246 32.6529986,22.8144246 C32.5672069,22.6657477 32.4695819,22.5229785 32.3453319,22.3989169 L25.4484708,15.5144862 C25.3547903,15.4219323 25.2532208,15.3392246 25.1447486,15.2673477 C25.1082625,15.2437169 25.0678319,15.2279631 25.0303597,15.2063015 C24.9564014,15.1639631 24.8834292,15.1196554 24.8035542,15.0871631 C24.7453736,15.0625477 24.6832486,15.0497477 24.6230958,15.0320246 C24.5599847,15.0133169 24.5008181,14.9887015 24.4367208,14.9768862 C24.3104986,14.9512862 24.1832903,14.9384862 24.0541097,14.9384862 L12.6152208,14.9384862 C11.5265542,14.9384862 10.6429986,15.8197169 10.6429986,16.9077169 L10.6429986,38.1399631 C5.41365139,34.57664 1.97212361,28.5832862 1.97212361,21.8002708 L1.97212361,21.8002708 Z M58.3461236,51.8192246 L43.9341097,37.4290708 C43.5485403,37.0440862 42.9243319,37.0440862 42.5397486,37.4290708 L40.6809292,39.2840862 L37.8488181,36.4543015 C41.3909292,32.5867323 43.5544569,27.4411323 43.5544569,21.8002708 C43.5544569,9.81060923 33.7850542,0.0570092308 21.7771792,0.0570092308 C9.76930417,0.0570092308 -9.86111111e-05,9.81060923 -9.86111111e-05,21.8002708 C-9.86111111e-05,33.7879631 9.76930417,43.5425477 21.7771792,43.5425477 C27.4266097,43.5425477 32.5800264,41.3823015 36.4544569,37.8475323 L39.2855819,40.6763323 L37.9365819,42.0232862 C37.7511931,42.2074092 37.6476514,42.4575015 37.6476514,42.7194092 C37.6476514,42.9803323 37.7511931,43.2304246 37.9365819,43.4155323 L52.3525403,57.8037169 C52.5448319,57.9957169 52.7972764,58.0922092 53.0497208,58.0922092 C53.3021653,58.0922092 53.5546097,57.9957169 53.7469014,57.8037169 L58.3461236,53.2114708 C58.7316931,52.8264862 58.7316931,52.2042092 58.3461236,51.8192246 L58.3461236,51.8192246 Z" id="Fill-3" fill="#0C87C6" mask="url(#mask-8)"></path>
                    </g>
                </g>
            </g>
        </g>
        <g id="flowPathRetrievedHCAData" transform="translate(210.000000, 580.000000)">
            <g id="Processed-Data" transform="translate(158.000000, 2.000000)" fill="#E2A44F">
                <polygon id="Fill-1" points="6 0 -1.03028697e-13 11 11.999 11"></polygon>
            </g>
            <g id="Metadata" transform="translate(140.000000, 3.000000)" fill="#A0267A">
                <polygon id="Fill-1" points="0 10 10 10 10 0 0 0"></polygon>
            </g>
            <g id="Symbol/Raw-Data" transform="translate(121.000000, 2.000000)" fill="#0C87C6">
                <path d="M5.5,0 C2.463,0 0,2.462 0,5.5 C0,8.537 2.463,11 5.5,11 C8.537,11 11,8.537 11,5.5 C11,2.462 8.537,0 5.5,0" id="Fill-1"></path>
            </g>
            <text id="textRetrieveHCAData" fontFamily="Montserrat-SemiBold, Montserrat SemiBold" fontSize="11" fontWeight="500" letterSpacing="0.100000001" fill="#0068A7">
                <tspan x="0.263999987" y="11">Retrieved HCA Dat</tspan>
                <tspan x="108.059" y="11">a</tspan>
            </text>
        </g>
        <g id="flowPathUploadProcessedData" transform="translate(209.000000, 232.000000)">
            <g id="Processed-Data" transform="translate(144.000000, 2.000000)" fill="#E2A44F">
                <polygon id="Fill-1" points="6 0 -1.03028697e-13 11 11.999 11"></polygon>
            </g>
            <text id="textUploadProcessedData" fontFamily="Montserrat-SemiBold, Montserrat SemiBold" fontSize="11" fontWeight="500" letterSpacing="0.100000001" fill="#0068A7">
                <tspan x="0.856499984" y="11">Upload Processed Data</tspan>
            </text>
        </g>
        <g id="statePipelines" transform="translate(358.000000, 297.000000)">
            <rect id="containerPipelines" stroke="#BCBEC0" strokeWidth="2" fillRule="nonzero" fill="transparent" x="0" y="19" width="170" height="60" rx="4"></rect>
            <text id="textPipelines" fontFamily="DINAlternate-Bold, DIN Alternate" fontSize="21" fontWeight="bold" linespacing="21" letterSpacing="0.21" fill="#0C87C6">
                <tspan x="43" y="58.5">Pipelines</tspan>
            </text>
            <g id="icon/pipelines" transform="translate(157.000000, 0.000000)">
                <g id="Group-6" transform="translate(0.000000, 4.430769)">
                    <path d="M52.4334014,1.93319385 L45.1026514,14.7391015 L59.7641514,14.7391015 L52.4334014,1.93319385 Z M41.7548042,23.7581785 L64.4146514,23.7581785 L64.4146514,19.2811323 L41.7548042,19.2811323 L41.7548042,23.7581785 Z M61.3281236,23.7581785 L61.3281236,35.7301169 C61.3281236,43.4376862 55.0663181,49.6821169 47.3529569,49.6821169 L36.2010264,49.6821169 L36.2010264,56.5665477 C36.2010264,57.11104 35.7602347,57.5511631 35.2149153,57.5511631 L1.97212361,57.5511631 C1.42680417,57.5511631 0.9860125,57.11104 0.9860125,56.5665477 L0.9860125,10.6755938 C0.9860125,10.1320862 1.42680417,9.69097846 1.97212361,9.69097846 L22.7129986,9.69097846 C22.9753042,9.69097846 23.2257764,9.79436308 23.4101792,9.97947077 L35.9120958,22.4604554 C36.0974847,22.6445785 36.2010264,22.8956554 36.2010264,23.1565785 L36.2010264,33.2282092 L41.2686514,33.2282092 C43.2448181,33.2282092 44.8492208,31.6321477 44.8492208,29.6579938 L44.8492208,23.7581785 L61.3281236,23.7581785 Z" id="Fill-1" fill="#FFFFFF"></path>
                    <g id="Group-5" transform="translate(0.000000, 0.443274)">
                        <mask id="mask-10" fill="white">
                            <use href="#path-9"></use>
                        </mask>
                        <g id="Clip-4"></g>
                        <path d="M29.1345542,35.1519508 C29.1345542,34.6074585 28.6937625,34.1673354 28.1484431,34.1673354 L9.03859583,34.1673354 C8.49327639,34.1673354 8.05248472,34.6074585 8.05248472,35.1519508 C8.05248472,35.6964431 8.49327639,36.1365662 9.03859583,36.1365662 L28.1484431,36.1365662 C28.6937625,36.1365662 29.1345542,35.6964431 29.1345542,35.1519508 L29.1345542,35.1519508 Z M29.1345542,41.3422277 C29.1345542,40.7977354 28.6937625,40.3576123 28.1484431,40.3576123 L9.03859583,40.3576123 C8.49327639,40.3576123 8.05248472,40.7977354 8.05248472,41.3422277 C8.05248472,41.88672 8.49327639,42.3268431 9.03859583,42.3268431 L28.1484431,42.3268431 C28.6937625,42.3268431 29.1345542,41.88672 29.1345542,41.3422277 L29.1345542,41.3422277 Z M29.1345542,48.5190892 C29.1345542,47.9745969 28.6937625,47.5344738 28.1484431,47.5344738 L9.03859583,47.5344738 C8.49327639,47.5344738 8.05248472,47.9745969 8.05248472,48.5190892 C8.05248472,49.0635815 8.49327639,49.5037046 9.03859583,49.5037046 L28.1484431,49.5037046 C28.6937625,49.5037046 29.1345542,49.0635815 29.1345542,48.5190892 L29.1345542,48.5190892 Z M56.6628319,33.1807508 L52.8722208,29.39392 L49.0786514,33.1807508 C48.6930819,33.5647508 48.6930819,34.1880123 49.0786514,34.5729969 C49.4632347,34.9579815 50.0874431,34.9579815 50.4730125,34.5729969 L51.8841375,33.1640123 L51.8841375,34.1023508 C51.8841375,38.3834585 49.6180542,40.6461046 45.3304431,40.6461046 L42.3661931,40.6461046 C41.8208736,40.6461046 41.3800819,41.0862277 41.3800819,41.63072 C41.3800819,42.1752123 41.8208736,42.6153354 42.3661931,42.6153354 L45.3304431,42.6153354 C50.6692486,42.6153354 53.8563597,39.4330585 53.8563597,34.1023508 L53.8563597,33.1620431 L55.2684708,34.5729969 C55.4607625,34.7649969 55.7132069,34.8614892 55.9656514,34.8614892 C56.2180958,34.8614892 56.4705403,34.7649969 56.6628319,34.5729969 C57.0484014,34.1889969 57.0484014,33.5657354 56.6628319,33.1807508 L56.6628319,33.1807508 Z M63.4285403,22.3302892 L62.3132486,22.3302892 L43.8631097,22.3302892 L42.7419014,22.3302892 L42.7419014,19.8224738 L63.4285403,19.8224738 L63.4285403,22.3302892 Z M60.3410264,35.2868431 C60.3410264,42.4361354 54.5140958,48.2542277 47.3529569,48.2542277 L37.1871375,48.2542277 L37.1871375,33.7695508 L41.2686514,33.7695508 C43.7861931,33.7695508 45.8353319,31.7264738 45.8353319,29.21472 L45.8353319,24.29952 L60.3410264,24.29952 L60.3410264,35.2868431 Z M35.2149153,56.1232738 L32.1717764,56.1232738 L1.97212361,56.1232738 L1.97212361,10.23232 L20.7407764,10.23232 L20.7407764,22.7073969 C20.7407764,23.7944123 21.6243319,24.6766277 22.7129986,24.6766277 L35.2149153,24.6766277 L35.2149153,31.80032 L35.2149153,33.7695508 L35.2149153,48.2542277 L35.2149153,50.2234585 L35.2149153,56.1232738 Z M22.7129986,10.23232 L35.2089986,22.7073969 L22.7129986,22.7073969 L22.7129986,10.23232 Z M40.7696792,17.8532431 L40.7696792,24.29952 L43.8631097,24.29952 L43.8631097,29.21472 C43.8631097,30.6404431 42.6985125,31.80032 41.2686514,31.80032 L37.1871375,31.80032 L37.1871375,22.7133046 C37.1871375,22.5862892 37.1733319,22.4612431 37.1506514,22.3391508 C37.1467069,22.3224123 37.1407903,22.3066585 37.1368458,22.28992 C37.1043042,22.1412431 37.0510542,21.9994585 36.9859708,21.8635815 C36.9613181,21.8123815 36.9346931,21.7641354 36.9060958,21.7158892 C36.8350958,21.5928123 36.7512764,21.4785969 36.6536514,21.3742277 C36.6359014,21.35552 36.6280125,21.3318892 36.6092764,21.3141662 L24.1073597,8.83908923 C24.0146653,8.74653538 23.9121097,8.66382769 23.8046236,8.59195077 C23.7681375,8.56733538 23.7277069,8.55256615 23.6902347,8.53090462 C23.6152903,8.48856615 23.5423181,8.44425846 23.4634292,8.41176615 C23.4042625,8.38715077 23.3431236,8.37533538 23.2819847,8.35662769 C23.2198597,8.33792 23.1597069,8.31330462 23.0965958,8.30050462 C22.9703736,8.27588923 22.8421792,8.26308923 22.7129986,8.26308923 L1.97212361,8.26308923 C0.883456944,8.26308923 -9.86111111e-05,9.14432 -9.86111111e-05,10.23232 L-9.86111111e-05,56.1232738 C-9.86111111e-05,57.2102892 0.883456944,58.0925046 1.97212361,58.0925046 L32.1717764,58.0925046 L35.2149153,58.0925046 C36.3045681,58.0925046 37.1871375,57.2102892 37.1871375,56.1232738 L37.1871375,50.2234585 L47.3529569,50.2234585 C55.6027625,50.2234585 62.3132486,43.5221662 62.3132486,35.2868431 L62.3132486,24.29952 L65.4007625,24.29952 L65.4007625,17.8532431 L40.7696792,17.8532431 Z M46.8027069,13.3112123 L58.0640958,13.3112123 L52.4334014,3.47392 L46.8027069,13.3112123 Z M59.7641514,15.2804431 L45.1026514,15.2804431 C44.7515958,15.2804431 44.4271653,15.0933662 44.2496653,14.7901046 C44.0731514,14.4858585 44.0721653,14.1117046 44.2467069,13.8074585 L51.5774569,1.00155077 C51.9275264,0.388135385 52.9392764,0.388135385 53.2893458,1.00155077 L60.6200958,13.8074585 C60.7936514,14.1117046 60.7926653,14.4858585 60.6171375,14.7901046 C60.4396375,15.0933662 60.1152069,15.2804431 59.7641514,15.2804431 L59.7641514,15.2804431 Z" id="Fill-3" fill="#0C87C6" mask="url(#mask-10)"></path>
                    </g>
                </g>
            </g>
            <rect id="bounbdsPipelines" fillRule="nonzero" x="0" y="19" width="170" height="60" rx="4"></rect>
        </g>
        <g id="flowPathReceiveRawData" transform="translate(221.000000, 458.000000)">
            <g id="Symbol/Raw-Data" transform="translate(123.000000, 2.000000)" fill="#0C87C6">
                <path d="M5.5,0 C2.463,0 0,2.462 0,5.5 C0,8.537 2.463,11 5.5,11 C8.537,11 11,8.537 11,5.5 C11,2.462 8.537,0 5.5,0" id="Fill-1"></path>
            </g>
            <text id="textReceiveRawData" fontFamily="Montserrat-SemiBold, Montserrat SemiBold" fontSize="11" fontWeight="500" letterSpacing="0.100000001" fill="#0068A7">
                <tspan x="0.873499987" y="11">Retrieved Raw Data</tspan>
            </text>
        </g>
        <g id="stateStorage" transform="translate(15.000000, 365.000000)">
            <rect id="containerStorage" stroke="#BCBEC0" strokeWidth="2" fillRule="nonzero" fill="transparent" x="0" y="22" width="170" height="124" rx="4"></rect>
            <text id="textStorage" fontFamily="DINAlternate-Bold, DIN Alternate" fontSize="21" fontWeight="bold" linespacing="21" letterSpacing="0.21" fill="#0C87C6">
                <tspan x="50" y="55.5">Storage</tspan>
            </text>
            <g id="substateGCP" transform="translate(10.000000, 105.000000)">
                <rect id="containerGCP" fill="#FFFFFF" fillRule="nonzero" x="0" y="0" width="150" height="30" rx="3"></rect>
                <text id="textGCP" fontFamily=".SFNSText, .SF NS Text" fontSize="14" fontWeight="normal" fill="#717272">
                    <tspan x="60.79" y="20.5">GCP</tspan>
                </text>
            </g>
            <g id="substateAWS" transform="translate(10.000000, 70.000000)">
                <rect id="containerAWS" fill="#FFFFFF" fillRule="nonzero" x="0" y="0" width="150" height="30" rx="3"></rect>
                <text id="textAWS" fontFamily="Lato-Regular, Lato" fontSize="14" fontWeight="normal" fill="#717272">
                    <tspan x="59.397" y="20.5">AWS</tspan>
                </text>
            </g>
            <g id="icon/storage" transform="translate(130.000000, 0.000000)">
                <g id="Group-6" transform="translate(0.000000, 7.876923)">
                    <path d="M56.4740903,20.0605538 C56.3409653,10.2242462 48.3228958,1.96923077 38.4430486,1.96923077 C32.1526458,1.96923077 26.2418958,5.36516923 22.9788542,10.2616615 C21.5420903,9.31249231 19.8223125,8.75618462 17.9713819,8.75618462 C12.9678542,8.75618462 8.91000694,12.8009846 8.91000694,17.7969231 C8.91000694,17.9672615 8.92479861,18.1395692 8.93663194,18.3089231 C8.92479861,18.5147077 8.91000694,18.7224615 8.91000694,18.9282462 C4.39657639,21.0875077 0.985618056,26.2272 0.985618056,31.5372308 C0.985618056,38.9070769 7.01864583,44.9299692 14.3987014,44.9299692 L17.2515208,44.9299692 L17.2515208,54.0839385 L39.7565486,54.0839385 L39.7565486,44.9299692 L44.6831597,44.9299692 L54.1744792,44.9299692 C61.0407708,44.9299692 66.6566736,39.3186462 66.6566736,32.4627692 C66.6566736,26.3926154 62.2497431,21.1416615 56.4740903,20.0605538" id="Fill-1" fill="#FFFFFF"></path>
                    <g id="Group-5" transform="translate(0.000000, 0.914412)">
                        <mask id="mask-12" fill="white">
                            <use href="#path-11"></use>
                        </mask>
                        <g id="Clip-4"></g>
                        <path d="M32.2816292,29.5615015 L37.3758792,29.5615015 L32.2816292,24.4749785 L32.2816292,29.5615015 Z M67.6425875,31.5484554 C67.6425875,38.9655631 61.6006847,45.0002708 54.1742819,45.0002708 L44.6829625,45.0002708 C44.1386292,45.0002708 43.6968514,44.5591631 43.6968514,44.0156554 C43.6968514,43.4711631 44.1386292,43.03104 44.6829625,43.03104 L54.1742819,43.03104 C60.5139903,43.03104 65.6703653,37.8795323 65.6703653,31.5484554 C65.6703653,26.0296862 61.6391431,21.1144862 56.2924486,20.1141169 L55.4986292,19.96544 L55.4877819,19.1600246 C55.3605736,9.71953231 47.7142681,2.03953231 38.4428514,2.03953231 C32.7263653,2.03953231 26.9793097,5.12236308 23.8000875,9.89184 L23.2557542,10.7100554 L22.4353097,10.1685169 C21.1060319,9.29024 19.5617819,8.82550154 17.9711847,8.82550154 C13.5188931,8.82550154 9.89592083,12.4400246 9.89592083,16.8826092 C9.89592083,16.9968246 9.90479583,17.11104 9.91268472,17.2252554 L9.91367083,17.5738092 C9.90479583,17.7205169 9.89592083,17.8682092 9.89592083,18.0129477 L9.89592083,18.6332554 L9.33580972,18.9010708 C5.06890694,20.9431631 1.97251806,25.8731323 1.97251806,30.6229169 C1.97251806,37.4640246 7.54700417,43.03104 14.3985042,43.03104 L16.2652125,43.03104 L16.2652125,22.0981169 C16.2652125,21.5546092 16.7069903,21.1135015 17.2513236,21.1135015 L31.2915736,21.1135015 C31.3112958,21.1135015 31.3280597,21.1233477 31.3467958,21.1243323 C31.4424486,21.13024 31.5351431,21.1479631 31.6248792,21.1804554 C31.6505181,21.1903015 31.6761569,21.1962092 31.6998236,21.20704 C31.8063236,21.2552862 31.9069069,21.3163323 31.9926986,21.4019938 L40.4535319,29.8499938 C40.7355597,30.1315938 40.8203653,30.5549785 40.6675181,30.9232246 C40.5146708,31.2914708 40.1547403,31.5307323 39.7563514,31.5307323 L31.2955181,31.5307323 C30.7511847,31.5307323 30.3094069,31.0906092 30.3094069,30.5461169 L30.3094069,23.0827323 L18.2374347,23.0827323 L18.2374347,52.1850092 L38.7702403,52.1850092 L38.7702403,34.7996554 C38.7702403,34.2561477 39.2120181,33.81504 39.7563514,33.81504 C40.3006847,33.81504 40.7424625,34.2561477 40.7424625,34.7996554 L40.7424625,53.1696246 C40.7424625,53.7131323 40.3006847,54.15424 39.7563514,54.15424 L17.2513236,54.15424 C16.7069903,54.15424 16.2652125,53.7131323 16.2652125,53.1696246 L16.2652125,45.0002708 L14.3985042,45.0002708 C6.45932361,45.0002708 0.000295833333,38.55104 0.000295833333,30.6229169 C0.000295833333,25.2675938 3.24065694,19.9171938 7.94835139,17.3965785 C7.93257361,17.1779938 7.92369861,17.0293169 7.92369861,16.8826092 C7.92369861,11.3539938 12.4312125,6.85627077 17.9711847,6.85627077 C19.6288375,6.85627077 21.2450736,7.26193231 22.6966292,8.03485538 C26.3511569,3.09996308 32.2993792,0.0703015385 38.4428514,0.0703015385 C48.5287958,0.0703015385 56.8910181,8.20027077 57.4333792,18.3496862 C63.3066569,19.8325169 67.6425875,25.3680246 67.6425875,31.5484554 L67.6425875,31.5484554 Z M33.3081708,41.1937477 C33.1158792,41.3867323 32.8634347,41.48224 32.6109903,41.48224 C32.3585458,41.48224 32.1061014,41.3867323 31.9138097,41.1937477 L29.4889625,38.7735631 L29.4889625,48.3962092 C29.4889625,48.9407015 29.0471847,49.3808246 28.5028514,49.3808246 C27.9585181,49.3808246 27.5167403,48.9407015 27.5167403,48.3962092 L27.5167403,38.7735631 L25.0918931,41.1937477 C24.7063236,41.5787323 24.0821153,41.5787323 23.6975319,41.1937477 C23.3119625,40.8097477 23.3119625,40.1864862 23.6975319,39.8015015 L27.8056708,35.7015631 L28.5028514,35.00544 L29.2000319,35.7015631 L33.3081708,39.8015015 C33.6937403,40.1864862 33.6937403,40.8097477 33.3081708,41.1937477 L33.3081708,41.1937477 Z" id="Fill-3" fill="#0C87C6" mask="url(#mask-12)"></path>
                    </g>
                </g>
            </g>
        </g>
        <g id="stateValidation" transform="translate(15.000000, 152.000000)">
            <g id="containerValidation" fillRule="nonzero" stroke="#BCBEC0" strokeWidth="2">
                <path d="M29,1 L101.65,1" id="Line" strokeDasharray="2,3"></path>
                <path d="M170,74.3 L170,112" id="Line-Copy-2" strokeDasharray="2,3"></path>
                <path d="M29.3,201 L141,201" id="Line-Copy" strokeDasharray="2,3"></path>
                <path d="M-1.8189894e-12,1 L23,1 C25.209139,1 27,2.790861 27,5 L27,197 C27,199.209139 25.209139,201 23,201 L-1.8189894e-12,201 L-1.8189894e-12,201" id="Container" transform="translate(13.500000, 101.000000) scale(-1, 1) translate(-13.500000, -101.000000) "></path>
                <path d="M143,114 L166,114 C168.209139,114 170,115.790861 170,118 L170,201 L170,201" id="Bottpm-Right" transform="translate(156.500000, 157.500000) scale(1, -1) translate(-156.500000, -157.500000) "></path>
                <path d="M104,1 L166,1 C168.209139,1 170,2.790861 170,5 L170,71.8237305 L170,71.8237305" id="Top-Right"></path>
            </g>
            <rect id="containerValidation" stroke="#BCBEC0" strokeWidth="2" fillRule="nonzero" fill="transparent" x="0" y="141" width="170" height="60" rx="4"></rect>
            <text id="textValidation" fontFamily="DINAlternate-Bold, DIN Alternate" fontSize="21" fontWeight="bold" linespacing="21" letterSpacing="0.21" fill="#0C87C6">
                <tspan x="41" y="181">Validation</tspan>
            </text>
            <g id="icon/validation" transform="translate(156.000000, 122.000000)">
                <g id="Group-20" transform="translate(0.000000, 6.892308)">
                    <polygon id="Fill-1" fill="#FFFFFF" points="39.4887208 16.4202338 25.0086653 1.96903385 25.0086653 5.96657231 25.0086653 10.8039877 25.0086653 16.4202338"></polygon>
                    <g id="Group-19" transform="translate(0.000000, 0.968271)">
                        <path d="M48.7720694,31.8999631 C48.7720694,26.5003323 44.7191528,22.0577477 39.4888194,21.4147938 L39.4888194,21.3261785 L39.4888194,15.4519631 L25.0067917,1.00076308 L0.986111111,1.00076308 L0.986111111,54.15424 L39.4888194,54.15424 L39.4888194,42.3841477 C44.7191528,41.7402092 48.7720694,37.2956554 48.7720694,31.8999631" id="Fill-2" fill="#FFFFFF"></path>
                        <polyline id="Fill-4" fill="#FFFFFF" points="34.6063861 32.2923323 36.7225806 34.6130708 41.7783722 28.8176246"></polyline>
                        <path d="M29.7932764,44.7346215 L10.6814569,44.7346215" id="Fill-6" fill="#FFFFFF"></path>
                        <path d="M27.5937556,35.5884308 L10.68195,35.5884308" id="Fill-8" fill="#FFFFFF"></path>
                        <path d="M28.2370944,26.4403692 L10.6813583,26.4403692" id="Fill-10" fill="#FFFFFF"></path>
                        <g id="Group-14">
                            <mask id="mask-14" fill="white">
                                <use href="#path-13"></use>
                            </mask>
                            <g id="Clip-13"></g>
                            <path d="M28.5798667,31.8999631 C28.5798667,26.6125785 32.8881861,22.3107938 38.1826167,22.3107938 C43.4780333,22.3107938 47.7863528,26.6125785 47.7863528,31.8999631 C47.7863528,37.1873477 43.4780333,41.4881477 38.1826167,41.4881477 C32.8881861,41.4881477 28.5798667,37.1873477 28.5798667,31.8999631 L28.5798667,31.8999631 Z M25.9952694,14.4673477 L25.9952694,3.37860923 L37.1067694,14.4673477 L25.9952694,14.4673477 Z M49.758575,31.8999631 C49.758575,26.3103015 45.7628528,21.6363323 40.475325,20.5709785 L40.475325,15.4519631 C40.475325,15.4303015 40.4634917,15.4115938 40.4625056,15.3899323 C40.4565889,15.3032862 40.439825,15.2195938 40.4122139,15.1368862 C40.4013667,15.1043938 40.3924917,15.0748554 40.3786861,15.0443323 C40.3313528,14.9409477 40.2721861,14.8434708 40.1893528,14.7597785 C40.1873806,14.7587938 40.1873806,14.7568246 40.1863944,14.7548554 L36.5644083,11.1413169 L25.7063389,0.30464 C25.6215333,0.219963077 25.52095,0.159901538 25.4154361,0.111655385 C25.3848667,0.0978707692 25.3542972,0.0899938462 25.3227417,0.0791630769 C25.2408944,0.0515938462 25.1590472,0.0348553846 25.0732556,0.0289476923 C25.050575,0.0279630769 25.0298667,0.0161476923 25.0071861,0.0161476923 L0.986505556,0.0161476923 C0.441186111,0.0161476923 0.000394444444,0.457255385 0.000394444444,1.00076308 L0.000394444444,54.15424 C0.000394444444,54.6977477 0.441186111,55.1388554 0.986505556,55.1388554 L39.4892139,55.1388554 C40.0335472,55.1388554 40.475325,54.6977477 40.475325,54.15424 L40.475325,46.0882708 C40.475325,45.5437785 40.0335472,45.1036554 39.4892139,45.1036554 C38.9438944,45.1036554 38.5031028,45.5437785 38.5031028,46.0882708 L38.5031028,53.1696246 L1.97261667,53.1696246 L1.97261667,1.98537846 L24.0230472,1.98537846 L24.0230472,15.4519631 C24.0230472,15.9954708 24.464825,16.4365785 25.0091583,16.4365785 L38.5031028,16.4365785 L38.5031028,20.3573169 C38.3956167,20.3543631 38.2910889,20.3415631 38.1826167,20.3415631 C34.1622417,20.3415631 30.6171722,22.4013785 28.5414083,25.5176862 C28.4437833,25.4851938 28.3451722,25.4556554 28.2367,25.4556554 L10.68195,25.4556554 C10.1366306,25.4556554 9.69583889,25.8967631 9.69583889,26.4402708 C9.69583889,26.9837785 10.1366306,27.4248862 10.68195,27.4248862 L27.5119083,27.4248862 C26.9301028,28.8023631 26.6076444,30.3147323 26.6076444,31.8999631 C26.6076444,32.8323938 26.7309083,33.7343015 26.94095,34.6037169 L10.68195,34.6037169 C10.1366306,34.6037169 9.69583889,35.04384 9.69583889,35.5883323 C9.69583889,36.1328246 10.1366306,36.5729477 10.68195,36.5729477 L27.5937556,36.5729477 C27.5977,36.5729477 27.6006583,36.5709785 27.6036167,36.5709785 C29.4052417,40.6216862 33.4660472,43.4573785 38.1826167,43.4573785 C44.5657139,43.4573785 49.758575,38.2733785 49.758575,31.8999631 L49.758575,31.8999631 Z" id="Fill-12" fill="#0C87C6" mask="url(#mask-14)"></path>
                        </g>
                        <path d="M42.4263458,28.0750277 C42.0151375,27.7166277 41.3929014,27.7609354 41.0349431,28.1705354 L36.7069014,33.1329969 L35.3352208,31.6294892 C34.9693736,31.2277662 34.3461514,31.1972431 33.9418458,31.5645046 C33.5395125,31.9307815 33.5099292,32.5530585 33.8777486,32.9547815 L35.9939431,35.27552 C36.1813042,35.4813046 36.4455819,35.5984738 36.7226792,35.5984738 L36.7345125,35.5984738 C37.0155542,35.59552 37.2818042,35.4724431 37.4662069,35.2607508 L42.5219986,29.46432 C42.8799569,29.0537354 42.8375542,28.4314585 42.4263458,28.0750277" id="Fill-15" fill="#0C87C6"></path>
                        <path d="M10.6815556,43.7500062 C10.1372222,43.7500062 9.69544444,44.1901292 9.69544444,44.7346215 C9.69544444,45.2791138 10.1372222,45.7192369 10.6815556,45.7192369 L29.793375,45.7192369 C30.3377083,45.7192369 30.7794861,45.2791138 30.7794861,44.7346215 C30.7794861,44.1901292 30.3377083,43.7500062 29.793375,43.7500062 L10.6815556,43.7500062 Z" id="Fill-17" fill="#0C87C6"></path>
                    </g>
                </g>
            </g>
            <g id="substateDataCurator" transform="translate(12.000000, 17.000000)">
                <rect id="containerDataCurator" fillOpacity="0.5" fill="#FFFFFF" fillRule="nonzero" x="0" y="0" width="110" height="30" rx="3"></rect>
                <text id="textDataCurator" fontFamily="Montserrat-SemiBold, Montserrat SemiBold" fontSize="14" fontWeight="500" fill="#717272">
                    <tspan x="8.352" y="20">Data Curator</tspan>
                </text>
            </g>
        </g>
        <g id="flowPathSubmitData" transform="translate(44.000000, 98.000000)">
            <g id="Symbol/Raw-Data" transform="translate(51.000000, 26.000000)" fill="#0C87C6">
                <path d="M5.5,0 C2.463,0 0,2.462 0,5.5 C0,8.537 2.463,11 5.5,11 C8.537,11 11,8.537 11,5.5 C11,2.462 8.537,0 5.5,0" id="Fill-1"></path>
            </g>
            <g id="Metadata" transform="translate(12.000000, 26.000000)" fill="#A0267A">
                <polygon id="Fill-1" points="0 10 10 10 10 0 0 0"></polygon>
            </g>
            <text id="textSubmitData" fontFamily="Montserrat-SemiBold, Montserrat SemiBold" fontSize="11" fontWeight="500" letterSpacing="0.100000001" fill="#0068A7">
                <tspan x="0.188999992" y="11">Submit Data</tspan>
            </text>
        </g>
        <g id="stateResearchData" transform="translate(15.000000, 0.000000)">
            <rect id="containerResearchData" stroke="#BCBEC0" strokeWidth="2" fillRule="nonzero" fill="transparent" x="0" y="19" width="170" height="60" rx="4"></rect>
            <text id="textResearchData" fontFamily="DINAlternate-Bold, DIN Alternate" fontSize="21" fontWeight="bold" linespacing="21" letterSpacing="0.21" fill="#0C87C6">
                <tspan x="19.5" y="58.5">Research Data</tspan>
            </text>
            <g id="icon/labs" transform="translate(156.000000, 0.000000)">
                <g id="icon---Labs" transform="translate(0.000000, 0.984615)">
                    <path d="M54.8322153,32.2273477 C54.4486181,36.0328862 57.2294514,39.4268554 61.0417569,39.8079015 C64.8530764,40.1889477 68.2502292,37.4123323 68.6338264,33.6058092 C69.0134792,29.80224 66.2326458,26.4082708 62.4223125,26.0282092 C58.6109931,25.6471631 55.2118681,28.4218092 54.8322153,32.2273477 L54.8322153,32.2273477 Z M40.9605903,7.21713231 C40.5809375,11.0226708 43.3597986,14.41664 47.1711181,14.7976862 C50.9824375,15.1787323 54.3825486,12.4031015 54.7612153,8.59657846 C55.1448125,4.79104 52.3639792,1.39904 48.5526597,1.01897846 C44.7413403,0.637932308 41.3412292,3.41356308 40.9605903,7.21713231 L40.9605903,7.21713231 Z M27.5761042,42.9271631 C27.5761042,43.6616862 28.1736875,44.2563938 28.9093264,44.2563938 C29.6429931,44.2563938 30.2405764,43.6616862 30.2405764,42.9271631 C30.2405764,42.19264 29.6429931,41.5989169 28.9093264,41.5989169 C28.1736875,41.5989169 27.5761042,42.19264 27.5761042,42.9271631 L27.5761042,42.9271631 Z M26.2497847,32.9175631 L21.1338403,36.6236554 L23.0291458,39.2328862 L28.1460764,35.5277785 L26.2497847,32.9175631 Z M6.91609028,6.29257846 L1.7971875,9.99768615 L5.58779861,15.2161477 L10.7067014,11.5100554 L6.91609028,6.29257846 Z M18.4742986,38.5485785 L28.9112986,30.9906708 L13.3642708,9.58414769 L2.92727083,17.1420554 L18.4742986,38.5485785 Z M7.26714583,23.1235938 C3.4479375,26.0675938 0.986604167,30.6824862 0.986604167,35.8733785 C0.986604167,44.7615015 8.19902083,51.9679015 17.1006458,51.9679015 L30.2405764,51.9679015 L30.8312569,47.5391015 L19.3598264,47.5391015 C11.5882847,47.5391015 5.29097917,42.9872246 5.29097917,36.2386708 C5.29097917,33.7751631 6.13015972,31.4810092 7.57284028,29.5619938 C7.57284028,29.5619938 9.6426875,27.1506708 10.7629097,26.9448862 L7.26714583,23.1235938 Z M10.5992153,52.0525785 L24.5467708,52.0525785 L29.0128681,61.4064246 L6.13015972,61.4064246 L10.5992153,52.0525785 Z" id="Fill-1" fill="#FFFFFF"></path>
                    <path d="M67.6526458,33.5081354 C67.3252569,36.7553969 64.4517292,39.1549046 61.1403681,38.8280123 C59.5586458,38.6704738 58.1327292,37.9073969 57.1268958,36.6785969 C56.1210625,35.4507815 55.6546319,33.9039508 55.8133958,32.3246277 C56.1171181,29.2762585 58.6583264,26.9771815 61.7231597,26.9771815 C61.9213681,26.9771815 62.1225347,26.9870277 62.3246875,27.0077046 C65.5877292,27.3336123 67.9780625,30.2500431 67.6526458,33.5081354 L67.6526458,33.5081354 Z M28.5622153,42.9269662 C28.5622153,42.7733662 28.6667431,42.6473354 28.8067708,42.6030277 L29.0118819,43.2509046 C28.9783542,43.2607508 28.9458125,43.2715815 28.9093264,43.2715815 C28.7180208,43.2715815 28.5622153,43.1169969 28.5622153,42.9269662 L28.5622153,42.9269662 Z M62.5209236,25.04832 C58.1041319,24.6121354 54.2819653,27.8081969 53.8510347,32.1296738 C53.7869375,32.7637662 53.8076458,33.3929354 53.8934375,34.0093046 L30.6034653,41.3604431 C30.1794375,40.9045662 29.5798819,40.6141046 28.9093264,40.6141046 C27.6303403,40.6141046 26.5899931,41.6518892 26.5899931,42.9269662 C26.5899931,44.2030277 27.6303403,45.2408123 28.9093264,45.2408123 C30.0798403,45.2408123 31.0412986,44.3654892 31.1951319,43.2381046 L54.3983264,35.9135508 C54.6921875,36.6313354 55.0955069,37.3077662 55.6003958,37.92512 C56.9395347,39.5605662 58.8377986,40.5776738 60.9431458,40.7883815 C61.2113681,40.8149662 61.4766319,40.8277662 61.7399236,40.8277662 L61.7409097,40.8277662 C65.8214375,40.8277662 69.2057708,37.7656123 69.6150069,33.7030892 C70.0479097,29.3648738 66.8657292,25.4825354 62.5209236,25.04832 L62.5209236,25.04832 Z M41.9417708,7.31539692 C42.2464792,4.26702769 44.7886736,1.96893538 47.8535069,1.96893538 C48.0517153,1.96893538 48.2528819,1.97878154 48.4550347,1.99945846 C50.0367569,2.15699692 51.4626736,2.92007385 52.4685069,4.14887385 C53.4733542,5.37570462 53.9387986,6.92056615 53.7800347,8.49988923 C53.4565903,11.7461662 50.5870069,14.1525662 47.2697292,13.8177969 C44.0066875,13.4909046 41.6163542,10.5744738 41.9417708,7.31539692 L41.9417708,7.31539692 Z M32.4228403,37.5430892 C32.5628681,37.6110277 32.7097986,37.6425354 32.8547569,37.6425354 C33.2206042,37.6425354 33.5706736,37.4397046 33.7412708,37.0901662 L44.4386042,15.2110277 C44.4642431,15.1588431 44.4652292,15.1037046 44.4800208,15.0495508 C45.2777847,15.4276431 46.1465486,15.6846277 47.0734931,15.7781662 C47.3407292,15.8047508 47.6069792,15.8175508 47.8702708,15.8175508 C51.9537569,15.8175508 55.3380903,12.7553969 55.7423958,8.69582769 C55.9544097,6.59465846 55.3341458,4.53681231 53.9950069,2.90235077 C52.6558681,1.26592 50.7576042,0.249796923 48.6502847,0.0390892308 C44.2354653,-0.394141538 40.4123125,2.79896615 39.9794097,7.11945846 C39.7052708,9.86850462 40.8846597,12.4324431 42.8894236,14.0550892 C42.8006736,14.1358277 42.7227708,14.23232 42.6665625,14.34752 L31.9692292,36.2266585 C31.7305903,36.7150277 31.9337292,37.3038277 32.4228403,37.5430892 L32.4228403,37.5430892 Z M29.3767431,50.9830892 L17.1006458,50.9830892 C8.75913194,50.9830892 1.97271528,44.2049969 1.97271528,35.8731815 C1.97271528,31.4945969 3.84139583,27.4389662 7.10246528,24.5668431 L8.83013194,26.9456738 C7.94361806,27.6614892 7.1310625,28.5643815 6.78395139,28.9710277 C5.16179861,31.1293046 4.30486806,33.6420431 4.30486806,36.2384738 C4.30486806,43.2430277 10.7767153,48.52352 19.3598264,48.52352 L29.7051181,48.52352 L29.3767431,50.9830892 Z M7.69314583,60.4216123 L11.2204653,53.0369969 L23.9245347,53.0369969 L27.4508681,60.4216123 L7.69314583,60.4216123 Z M6.32738194,15.8973046 L11.2855486,12.3073969 C11.2865347,12.3064123 11.2875208,12.3044431 11.2894931,12.3034585 L13.1453542,10.9594585 L27.5337014,30.7718892 L25.6729097,32.1198277 C25.6719236,32.1198277 25.6709375,32.1198277 25.6699514,32.1208123 L22.7806458,34.2141046 L18.6942014,37.1738585 L4.30486806,17.3614277 L6.32738194,15.8973046 Z M3.17379861,10.2170585 L6.69717361,7.66690462 L9.32910417,11.2912738 L5.80671528,13.8414277 L3.17379861,10.2170585 Z M26.7694653,35.3080123 L23.2490486,37.8581662 L22.5114375,36.8430277 L25.2370486,34.8678892 L26.0308681,34.2928738 L26.7694653,35.3080123 Z M31.5737986,46.8900431 C31.3864375,46.6763815 31.1152569,46.5542892 30.8312569,46.5542892 L19.3598264,46.5542892 C11.7786042,46.5542892 6.27709028,42.2160738 6.27709028,36.2384738 C6.27709028,34.0713354 6.9979375,31.9681969 8.32129861,30.2037662 C8.85478472,29.5824738 9.47110417,28.9769354 9.9888125,28.5417354 L17.6755486,39.1263508 C17.8293819,39.3380431 18.0601319,39.4798277 18.3194792,39.5201969 C18.3707569,39.5290585 18.4230208,39.5329969 18.4742986,39.5329969 C18.6803958,39.5329969 18.8835347,39.4689969 19.0531458,39.34592 L20.9139375,37.9979815 L22.2303958,39.8106585 C22.3842292,40.0223508 22.6159653,40.16512 22.8743264,40.2054892 C22.9256042,40.2143508 22.9778681,40.2173046 23.0291458,40.2173046 C23.2362292,40.2173046 23.4393681,40.1533046 23.6079931,40.0302277 L28.7249236,36.3241354 C28.9369375,36.1705354 29.0789375,35.9401354 29.1203542,35.6821662 C29.1617708,35.4241969 29.0986597,35.16032 28.9448264,34.9486277 L27.6273819,33.1369354 L29.4901458,31.7880123 C29.9309375,31.4689969 30.0295486,30.8526277 29.7090625,30.4125046 L14.1630208,9.00696615 C14.0091875,8.79527385 13.7784375,8.65348923 13.5190903,8.61213538 C13.2607292,8.57078154 12.9974375,8.63379692 12.7854236,8.78739692 L10.9256181,10.1343508 L7.71484028,5.71441231 C7.39435417,5.27428923 6.77803472,5.17582769 6.33724306,5.49484308 L1.21834028,9.20093538 C1.00632639,9.35453538 0.864326389,9.58493538 0.822909722,9.84290462 C0.781493056,10.1008738 0.844604167,10.3647508 0.9984375,10.5754585 L4.21020139,14.9973662 L2.34842361,16.3453046 C1.90763194,16.66432 1.80902083,17.2806892 2.12950694,17.7198277 L5.92603472,22.9481354 C2.14824306,26.20032 0.000493055556,30.8585354 0.000493055556,35.8731815 C0.000493055556,42.7261046 4.07115972,48.6328123 9.91682639,51.3503508 C9.83399306,51.4310892 9.76003472,51.5206892 9.70875694,51.6280123 L5.23970139,60.9818585 C5.09474306,61.2870892 5.1164375,61.6454892 5.29689583,61.9310277 C5.47735417,62.2175508 5.79192361,62.3908431 6.13015972,62.3908431 L29.0128681,62.3908431 C29.3520903,62.3908431 29.6666597,62.2175508 29.8471181,61.9310277 C30.0275764,61.6454892 30.0492708,61.2880738 29.9033264,60.9818585 L26.0693264,52.95232 L30.2405764,52.95232 C30.7346181,52.95232 31.1517431,52.5870277 31.2178125,52.0976738 L31.8084931,47.6688738 C31.8459653,47.3882585 31.7611597,47.1046892 31.5737986,46.8900431 L31.5737986,46.8900431 Z" id="Fill-3" fill="#0C87C6"></path>
                </g>
            </g>
        </g>
    </g>
</svg>
